<?xml version="1.0" encoding="utf-8"?>
<!-- Generator: Adobe Illustrator 23.0.0, SVG Export Plug-In . SVG Version: 6.00 Build 0)  -->
<svg version="1.1" id="레이어_1" xmlns="http://www.w3.org/2000/svg" xmlns:xlink="http://www.w3.org/1999/xlink" x="0px"
	 y="0px" viewBox="0 0 92.3 80" style="enable-background:new 0 0 92.3 80;" xml:space="preserve">
<g>
	<path d="M83.4,31.1c-2.3,0-4.4,0.9-6,2.3v-9.9c0-4.7-3.8-8.5-8.5-8.5H53c1.4-1.6,2.3-3.7,2.3-6c0-4.9-4-8.9-8.9-8.9s-8.9,4-8.9,8.9
		c0,2.3,0.9,4.4,2.3,6H23.8c-4.7,0-8.5,3.8-8.5,8.5v10.3c-1.6-1.7-3.9-2.7-6.4-2.7C4,31.1,0,35.1,0,40s4,8.9,8.9,8.9
		c2.5,0,4.8-1,6.4-2.7v10.3c0,4.7,3.8,8.5,8.5,8.5h15.9c-1.4,1.6-2.3,3.7-2.3,6c0,4.9,4,8.9,8.9,8.9s8.9-4,8.9-8.9
		c0-2.3-0.9-4.4-2.3-6h15.9c4.7,0,8.5-3.8,8.5-8.5v-9.9c1.6,1.4,3.7,2.3,6,2.3c4.9,0,8.9-4,8.9-8.9S88.3,31.1,83.4,31.1z"/>
</g>
</svg>
