<?xml version="1.0" encoding="utf-8"?>
<!-- Generator: Adobe Illustrator 23.0.0, SVG Export Plug-In . SVG Version: 6.00 Build 0)  -->
<svg version="1.1" id="레이어_1" xmlns="http://www.w3.org/2000/svg" xmlns:xlink="http://www.w3.org/1999/xlink" x="0px"
	 y="0px" viewBox="0 0 196.8 42.6" style="enable-background:new 0 0 196.8 42.6;" xml:space="preserve">
<style type="text/css">
	.st0{fill:#1D1F40;}
	.st1{fill:#F5C258;}
</style>
<g>
	<path class="st0" d="M46.1,25.8c-0.2-0.2-0.4-0.3-0.6-0.4c-0.2-0.1-0.5-0.1-0.7-0.1c-0.3,0-0.5,0-0.8,0.1c-0.2,0.1-0.5,0.2-0.7,0.4
		c-0.2,0.2-0.3,0.4-0.5,0.6c-0.1,0.3-0.2,0.6-0.2,1h4c0-0.4,0-0.7-0.1-1C46.4,26.2,46.3,26,46.1,25.8z"/>
	<path class="st0" d="M72.2,24.3h-5.5v4.8c0,0.5,0.1,0.8,0.2,0.9c0.2,0.1,0.5,0.2,0.9,0.2h4.3c1.3,0,2.3-0.3,2.9-0.9
		c0.6-0.6,0.9-1.2,0.9-2v-0.3c0-0.7-0.3-1.4-0.9-2C74.5,24.6,73.5,24.3,72.2,24.3z"/>
	<path class="st0" d="M72.7,17.6c0.5-0.2,0.9-0.4,1.2-0.7c0.3-0.3,0.5-0.6,0.7-0.9c0.1-0.3,0.2-0.7,0.2-1v-0.3c0-0.7-0.3-1.4-0.9-2
		c-0.6-0.6-1.5-0.9-2.9-0.9h-3.2c-0.4,0-0.7,0.1-0.9,0.2c-0.2,0.1-0.2,0.5-0.2,0.9v4.8H71C71.7,17.8,72.3,17.7,72.7,17.6z"/>
	<path class="st0" d="M100.2,19.4c-0.3-0.3-0.6-0.5-1-0.6c-0.4-0.1-0.8-0.2-1.2-0.2c-0.4,0-0.9,0.1-1.3,0.2
		c-0.4,0.1-0.8,0.3-1.1,0.6c-0.3,0.3-0.6,0.6-0.8,1.1c-0.2,0.4-0.3,1-0.3,1.6h6.7c0-0.7,0-1.2-0.2-1.6
		C100.7,20.1,100.5,19.7,100.2,19.4z"/>
	<path class="st0" d="M163.5,20.5c-0.2-0.4-0.4-0.8-0.7-1.1c-0.3-0.3-0.6-0.5-1-0.6c-0.4-0.1-0.8-0.2-1.2-0.2
		c-0.4,0-0.9,0.1-1.3,0.2c-0.4,0.1-0.8,0.3-1.1,0.6c-0.3,0.3-0.6,0.6-0.8,1.1c-0.2,0.4-0.3,1-0.3,1.6h6.7
		C163.7,21.5,163.6,20.9,163.5,20.5z"/>
	<path class="st0" d="M195.8,11.9c-0.9-1.8-2.4-3.1-4.2-3.9c-0.7-0.3-1.5-0.5-2.3-0.6c-0.5-0.1-1-0.1-1.5-0.1c-1.6,0-3.2,0.3-4.7,1
		c-1.3-0.6-2.7-1-4.2-1c-1.1,0-2.2,0.2-3.2,0.6c-1.1,0.4-2.1,1-2.9,1.7c-0.5,0.5-0.9,1-1.3,1.5c-0.1-0.1-0.1-0.1-0.2-0.2
		c-1.6-1.5-3.5-2.5-5.6-3c-1.7-0.4-3.5-0.6-5.2-0.6c-1.7,0-3.4,0.2-5.2,0.7c-1.9,0.5-3.7,1.4-5.2,2.6c-0.7-0.7-1.5-1.3-2.5-1.8
		c-0.3-0.1-0.7-0.3-1-0.4c-0.1-1.2-0.3-2.3-0.8-3.2c-0.5-1.2-1.3-2.2-2.2-3c-0.9-0.7-1.8-1.3-2.9-1.6c-1-0.3-2-0.5-3.1-0.5
		c-1.1,0-2.1,0.2-3.1,0.5c-1.1,0.4-2,0.9-2.9,1.6c-0.9,0.8-1.7,1.8-2.2,3c-0.5,1.1-0.7,2.3-0.8,3.5c-0.3-0.1-0.5-0.2-0.8-0.3
		c-0.1-1.2-0.3-2.3-0.8-3.2c-0.5-1.2-1.3-2.2-2.2-3c-0.9-0.7-1.8-1.3-2.9-1.6c-1-0.3-2-0.5-3.1-0.5c-1.1,0-2.1,0.2-3.1,0.5
		c-1.1,0.4-2,0.9-2.9,1.6c-0.9,0.8-1.7,1.8-2.2,3c-0.5,1.1-0.8,2.3-0.8,3.6c-0.8,0.4-1.6,0.9-2.2,1.5c-1.4-1.1-3-1.9-4.8-2.3
		c-1.7-0.4-3.5-0.6-5.2-0.6c-1.7,0-3.4,0.2-5.2,0.7c-2,0.5-3.8,1.4-5.4,2.7c0,0,0,0,0,0c-0.2-0.9-0.5-1.7-0.9-2.5
		c-0.9-1.8-2.3-3.4-4-4.6c-1.6-1.1-3.4-2-5.4-2.6c-1.9-0.5-4-0.8-6.3-0.8h-5.8c-1.7,0-3.1,0.2-4.3,0.5c-1.7,0.5-3.1,1.3-4.2,2.5
		c-1.1,1.1-1.8,2.5-2.2,4.2c-0.3,1.2-0.4,2.5-0.4,4.1v9c-0.4-0.5-0.7-0.9-1.1-1.2c-1.2-1.1-2.6-1.9-4.2-2.3
		c-1.2-0.3-2.4-0.4-3.6-0.4c-1.2,0-2.4,0.2-3.6,0.5c-1.4,0.4-2.7,1-3.9,1.9c-1-0.8-2.1-1.5-3.3-1.9c-0.7-0.2-1.4-0.4-2.1-0.4
		c-0.1-0.4-0.2-0.7-0.4-1.1c-0.4-0.9-1-1.7-1.7-2.4c-0.7-0.6-1.5-1.1-2.4-1.4c-0.8-0.3-1.7-0.5-2.6-0.5c-0.9,0-1.7,0.1-2.6,0.4
		c-0.5,0.2-1,0.4-1.5,0.7c-0.5-0.1-1-0.2-1.6-0.2H6.9c-1.1,0-2.1,0.2-3.1,0.7c-1,0.5-1.8,1.1-2.4,2c-0.5,0.7-0.9,1.5-1.2,2.3
		C0.1,17.9,0,18.6,0,19.3c0,0.7,0.1,1.4,0.3,2.1c0.2,0.8,0.6,1.6,1.1,2.3c0.6,0.8,1.4,1.5,2.3,2c0.6,0.3,1.2,0.5,1.8,0.6v10
		c0,2.8,2.2,5,5,5h4.9c1.3,0,2.5-0.5,3.4-1.4c0.9,0.8,2.1,1.4,3.4,1.4h4.8c0.7,0,1.4-0.1,2-0.4c0.6,0.3,1.3,0.4,2,0.4h4.9
		c1.2,0,2.2-0.4,3-1.1c0.8,0.4,1.6,0.7,2.5,1c1.3,0.3,2.6,0.5,3.8,0.5c0.6,0,1.3,0,1.9-0.1c0.6-0.1,1.2-0.2,1.8-0.3
		c0.5-0.1,1.1-0.3,1.5-0.5c0.6-0.2,1-0.4,1.5-0.7c1.3-0.8,2.3-1.8,3-3.1c0.4,0.7,0.8,1.4,1.4,1.9c1.1,1.2,2.5,2,4.2,2.5
		c1.2,0.4,2.7,0.5,4.3,0.5h6.9c2.1,0,4.1-0.2,6-0.6c2.1-0.5,4-1.2,5.6-2.3c0.8-0.5,1.5-1.1,2.1-1.8c0.7,0.8,1.4,1.5,2.3,2.1
		c1.7,1.2,3.6,2.1,5.6,2.6c1.8,0.5,3.7,0.7,5.5,0.7c0.9,0,1.9-0.1,2.8-0.2c0.9-0.1,1.8-0.3,2.6-0.5c0.8-0.2,1.5-0.4,2.2-0.7
		c0.8-0.3,1.4-0.6,2-0.9c1.6-0.9,2.8-2.1,3.6-3.5c0.6,1,1.3,1.9,2.1,2.7c1.3,1.1,2.8,2,4.6,2.5c1.5,0.4,3.1,0.6,4.9,0.6
		c1.2,0,2.4-0.2,3.5-0.5c1.1-0.4,2.1-0.8,2.9-1.3c0,0,0,0,0.1,0c0.8-0.5,1.4-1.1,2-1.8c0.2,0.2,0.4,0.5,0.7,0.7
		c1.3,1.1,2.8,2,4.6,2.5c1.5,0.4,3.1,0.6,4.9,0.6c1.2,0,2.4-0.2,3.5-0.5c1.1-0.4,2.1-0.8,2.9-1.3c0,0,0,0,0.1,0
		c0.6-0.4,1.2-0.9,1.6-1.4c0,0,0,0,0,0c1.7,1.2,3.6,2.1,5.6,2.6c1.8,0.5,3.7,0.7,5.5,0.7c0.9,0,1.9-0.1,2.8-0.2
		c0.9-0.1,1.8-0.3,2.6-0.5c0.8-0.2,1.5-0.4,2.2-0.7c0.8-0.3,1.4-0.6,2-0.9c0.1-0.1,0.2-0.1,0.3-0.2c0.9,1.1,2.3,1.8,3.8,1.8h8
		c2.8,0,5-2.2,5-5V24.7c0.1,0,0.3,0,0.4,0c2.1,0,4-0.7,5.5-2c1.6-1.3,2.6-3.2,2.9-5.3C197,15.4,196.7,13.5,195.8,11.9z M15.5,36.3
		h-4.9V21.4H6.9c-0.3,0-0.6-0.1-0.9-0.2c-0.2-0.1-0.4-0.3-0.6-0.5c-0.2-0.2-0.3-0.4-0.3-0.7C5,19.8,5,19.6,5,19.3
		c0-0.2,0-0.5,0.1-0.7c0.1-0.2,0.2-0.5,0.3-0.7c0.1-0.2,0.3-0.4,0.6-0.5c0.2-0.1,0.5-0.2,0.9-0.2h10.5c-0.1,0.4-0.1,0.9-0.1,1.4v2.8
		h-1.8V36.3z M30.8,26.7c-0.1-0.3-0.3-0.5-0.5-0.7c-0.2-0.2-0.4-0.3-0.6-0.4c-0.2-0.1-0.4-0.1-0.7-0.1c-0.2,0-0.4,0-0.7,0.1
		c-0.2,0.1-0.4,0.2-0.6,0.3c-0.2,0.2-0.3,0.4-0.5,0.6c-0.1,0.3-0.2,0.6-0.2,1v8.7h-4.8V25.7c0,0,0,0,0,0c0.9-0.5,1.6-1.1,2.2-1.9
		c0.5-0.7,0.9-1.5,1.2-2.4c0.2-0.7,0.3-1.4,0.3-2.1c0-0.7-0.1-1.4-0.3-2.1c-0.1-0.3-0.2-0.6-0.3-0.8c0.1,0,0.1,0,0.2,0.1
		c0.3,0.1,0.5,0.3,0.8,0.4c0.2,0.2,0.4,0.4,0.5,0.7c0.1,0.3,0.2,0.6,0.2,1v4c0.4-0.4,0.9-0.6,1.4-0.8c0.5-0.2,1.1-0.3,1.7-0.3
		c0.8,0,1.5,0.1,2.2,0.3c0.6,0.2,1.2,0.5,1.7,1c-0.7,1.5-1.1,3.3-1.1,5.3v2.1c0,2,0.4,3.8,1.2,5.4c0.1,0.3,0.3,0.5,0.4,0.8H31v-8.6
		C31,27.3,30.9,27,30.8,26.7z M51.2,29.8c0,0.3-0.1,0.5-0.1,0.7h-8.5v0c0,0.4,0.1,0.8,0.3,1c0.2,0.3,0.4,0.5,0.7,0.7
		c0.3,0.2,0.6,0.3,0.9,0.4c0.3,0.1,0.6,0.1,0.9,0.1c0.6,0,1,0,1.3-0.1c0.3,0,0.6-0.1,0.9-0.2c0.2-0.1,0.4-0.1,0.5-0.2
		c0.2-0.1,0.4-0.1,0.6-0.2c0.1,0,0.2,0,0.3,0c0.3,0,0.6,0.1,0.8,0.2c0.3,0.1,0.6,0.4,0.7,0.8c0.3,0.6,0.3,1.1,0,1.6
		c-0.2,0.5-0.7,0.9-1.2,1.2c-0.2,0.1-0.4,0.2-0.7,0.3c-0.3,0.1-0.6,0.2-1,0.3c-0.4,0.1-0.8,0.2-1.2,0.2c-0.4,0.1-0.8,0.1-1.3,0.1
		c-0.9,0-1.7-0.1-2.6-0.3c-0.7-0.2-1.3-0.4-1.8-0.8V28c0-1.8-0.2-3.4-0.7-4.8c0-0.1-0.1-0.1-0.1-0.2c0.1,0,0.1-0.1,0.2-0.1
		c0.7-0.5,1.4-0.9,2.2-1.1c0.8-0.2,1.6-0.3,2.3-0.3c0.8,0,1.6,0.1,2.4,0.3c0.8,0.2,1.5,0.6,2.1,1.1c0.6,0.6,1.1,1.3,1.5,2.3
		c0.4,1,0.6,2.3,0.6,3.8C51.3,29.3,51.3,29.5,51.2,29.8z M127.9,25.9v-1.7c0.3-0.1,0.5-0.2,0.8-0.3v2.2
		C128.5,26.1,128.2,26,127.9,25.9z M80.5,34.9c-1.1,0.7-2.4,1.3-3.9,1.6c-1.5,0.3-3.1,0.5-4.9,0.5h-6.9c-1.2,0-2.2-0.1-3-0.3
		c-0.8-0.2-1.4-0.6-1.9-1.1c-0.5-0.5-0.8-1.1-1-1.9c-0.2-0.8-0.3-1.7-0.3-2.9V11.4c0-1.1,0.1-2.1,0.3-2.9c0.2-0.8,0.5-1.4,1-1.9
		c0.5-0.5,1.1-0.9,1.9-1.1c0.8-0.2,1.8-0.3,3-0.3h5.8c1.8,0,3.5,0.2,5,0.6c1.5,0.4,2.8,1,3.8,1.8c1.1,0.8,1.9,1.7,2.5,2.9
		c0.6,1.1,0.9,2.5,0.9,3.9v0.2c0,1.2-0.3,2.4-0.9,3.4c-0.6,1.1-1.6,1.9-2.8,2.6c1.1,0.4,1.9,1,2.6,1.6c0,0.3,0,0.6,0,0.9v3.5
		c0,2.2,0.3,4.2,1,6C82.1,33.6,81.4,34.3,80.5,34.9z M108.7,26.1c0,0.5-0.1,0.9-0.1,1.2H94.4v0c0,0.7,0.1,1.3,0.4,1.7
		c0.3,0.4,0.7,0.8,1.1,1.1c0.4,0.3,0.9,0.5,1.5,0.6c0.5,0.1,1,0.2,1.5,0.2c1,0,1.7,0,2.2-0.1c0.5-0.1,1.1-0.2,1.6-0.4
		c0.3-0.1,0.6-0.2,0.9-0.3c0.3-0.1,0.6-0.2,1-0.3c0.2,0,0.3,0,0.5,0c0.5,0,0.9,0.1,1.4,0.3c0.6,0.2,1,0.7,1.2,1.3
		c0.4,1,0.4,1.9,0,2.7c-0.4,0.8-1.1,1.5-2,2c-0.3,0.2-0.7,0.4-1.2,0.6c-0.5,0.2-1,0.4-1.7,0.5c-0.6,0.2-1.3,0.3-2,0.4
		c-0.7,0.1-1.4,0.1-2.1,0.1c-1.4,0-2.9-0.2-4.3-0.6c-1.4-0.4-2.8-1-3.9-1.8c-0.9-0.7-1.7-1.5-2.4-2.6c0.5-1.5,0.8-3.1,0.8-4.9
		c0-2.6-0.7-4.9-2-6.9c0-0.1-0.1-0.1-0.2-0.2c0.2-1,0.4-1.9,0.8-2.7c0.7-1.4,1.6-2.5,2.7-3.4c1.1-0.8,2.3-1.4,3.6-1.8
		c1.3-0.4,2.6-0.5,3.9-0.5c1.4,0,2.7,0.2,4,0.5c1.3,0.3,2.5,1,3.5,1.9c0,0,0.1,0.1,0.1,0.1c-0.1,0.5-0.2,1-0.2,1.6
		c0,2,0.7,3.9,1.9,5.4c0.4,0.4,0.8,0.9,1.4,1.3c0,0.6,0.1,1.2,0.1,1.8C108.8,25.2,108.7,25.6,108.7,26.1z M128.4,35
		c-0.3,0.6-0.7,1.1-1.3,1.5c-0.4,0.3-1,0.5-1.7,0.7c-0.7,0.2-1.4,0.3-2.1,0.3c-1.3,0-2.5-0.1-3.5-0.4c-1-0.3-1.9-0.7-2.6-1.4
		c-0.7-0.6-1.3-1.5-1.6-2.5c-0.4-1-0.6-2.3-0.6-3.8v-9.9h-1.3c-0.2,0-0.4,0-0.5,0c-0.2-1-0.4-1.9-0.8-2.8c-0.4-1-0.8-1.9-1.3-2.7
		c0.3-0.3,0.6-0.5,1-0.7c0.4-0.2,1-0.3,1.6-0.3h1.3V8.9c0-0.7,0.1-1.2,0.3-1.7c0.2-0.5,0.5-0.9,0.9-1.2c0.4-0.3,0.8-0.6,1.2-0.7
		C118,5.1,118.5,5,119,5c0.5,0,1,0.1,1.4,0.2c0.5,0.2,0.9,0.4,1.2,0.7c0.4,0.3,0.7,0.7,0.9,1.2c0.2,0.5,0.3,1.1,0.3,1.7V13h1.6
		c-0.1,0.2-0.2,0.5-0.2,0.7c-0.3,0.9-0.4,1.7-0.4,2.6c0,1.1,0.2,2.2,0.6,3.2h-1.6v9.8c0,0.6,0.1,1,0.4,1.2c0.2,0.2,0.5,0.3,0.9,0.3
		c0.1,0,0.2,0,0.2,0c0.2,0,0.4,0,0.5-0.1c0.2-0.1,0.6-0.1,0.9-0.1c0.7,0,1.2,0.2,1.7,0.6c0.5,0.4,0.8,0.9,0.9,1.6
		C128.8,33.7,128.7,34.4,128.4,35z M145.8,36.5c-0.4,0.3-1,0.5-1.7,0.7c-0.7,0.2-1.4,0.3-2.1,0.3c-1.3,0-2.5-0.1-3.5-0.4
		c-1-0.3-1.9-0.7-2.6-1.4s-1.3-1.5-1.6-2.5c-0.4-1-0.6-2.3-0.6-3.8v-9.9h-0.6c0.4-1,0.6-2.1,0.6-3.2c0-0.9-0.2-1.9-0.5-2.8
		c-0.1-0.2-0.1-0.4-0.2-0.6h0.6V8.9c0-0.7,0.1-1.2,0.3-1.7c0.2-0.5,0.5-0.9,0.9-1.2c0.4-0.3,0.8-0.6,1.2-0.7
		c0.5-0.2,0.9-0.2,1.4-0.2c0.5,0,1,0.1,1.4,0.2c0.5,0.2,0.9,0.4,1.2,0.7c0.4,0.3,0.7,0.7,0.9,1.2c0.2,0.5,0.3,1.1,0.3,1.7V13h2.3
		c0.6,0,1.2,0.1,1.6,0.3c0.4,0.2,0.8,0.5,1.1,0.8c0,0,0.1,0.1,0.1,0.1c-0.3,0.5-0.6,1-0.9,1.5c-0.6,1.1-1,2.4-1.2,3.8
		c-0.2,0-0.4,0-0.7,0h-2.3v9.8c0,0.6,0.1,1,0.4,1.2c0.2,0.2,0.5,0.3,0.9,0.3c0.1,0,0.2,0,0.2,0c0.2,0,0.4,0,0.5-0.1
		c0.2-0.1,0.6-0.1,0.9-0.1c0,0,0,0,0.1,0c0.3,1.2,0.7,2.4,1.2,3.4c0.3,0.5,0.5,1,0.8,1.4C146.4,36,146.1,36.3,145.8,36.5z M168.3,36
		c-0.3,0.2-0.7,0.4-1.2,0.6c-0.5,0.2-1,0.4-1.7,0.5c-0.6,0.2-1.3,0.3-2,0.4c-0.7,0.1-1.4,0.1-2.1,0.1c-1.4,0-2.9-0.2-4.3-0.6
		c-1.4-0.4-2.8-1-3.9-1.8c-0.3-0.2-0.6-0.4-0.8-0.7c0.1-0.9,0-1.8-0.2-2.7c-0.4-1.8-1.3-3.3-2.7-4.5c0,0-0.1-0.1-0.2-0.1
		c0-0.2,0-0.4,0-0.6v-3.5c0-0.1,0-0.2,0-0.3c0.5-0.4,0.9-0.8,1.2-1.1c1.3-1.5,1.9-3.4,1.9-5.4c0-0.4,0-0.8-0.1-1.2
		c0.2-0.2,0.4-0.4,0.7-0.6c1.1-0.8,2.3-1.4,3.6-1.8c1.3-0.4,2.6-0.5,3.9-0.5c1.4,0,2.7,0.2,4,0.5c1.3,0.3,2.5,1,3.5,1.9
		c0.8,0.7,1.4,1.6,1.9,2.7v10H157v0c0,0.7,0.1,1.3,0.4,1.7c0.3,0.4,0.7,0.8,1.1,1.1c0.4,0.3,0.9,0.5,1.5,0.6c0.5,0.1,1,0.2,1.5,0.2
		c1,0,1.7,0,2.2-0.1c0.5-0.1,1.1-0.2,1.6-0.4c0.3-0.1,0.6-0.2,0.9-0.3c0.3-0.1,0.6-0.2,1-0.3c0.2,0,0.3,0,0.5,0
		c0.5,0,0.9,0.1,1.4,0.3c0.3,0.1,0.6,0.3,0.8,0.6v4C169.5,35.2,169,35.6,168.3,36z M191.7,16.6c-0.1,0.9-0.5,1.7-1.2,2.2
		c-0.6,0.6-1.4,0.8-2.3,0.8c-0.3,0-0.6,0-0.9,0c-0.1,0-0.2,0-0.3,0c-0.2,0-0.4,0-0.6,0c-1.1,0.1-2,0.4-2.6,1c-0.6,0.6-1,1.4-1,2.4
		v13.9h-8V36c0.9-1.8,1-3.8,0.3-5.8c0.4-0.6,0.7-1.3,0.9-2.1c0.1-0.5,0.1-1,0.2-1.6c0.1-0.6,0.1-1.2,0.1-1.6c0-3.2-0.4-5.9-1.2-8.1
		c-0.1-0.2-0.1-0.3-0.2-0.5v0c0-0.7,0.1-1.2,0.3-1.7c0.2-0.5,0.5-0.9,0.9-1.2c0.4-0.3,0.8-0.6,1.3-0.8c0.5-0.2,1-0.3,1.5-0.3
		c0.8,0,1.5,0.2,2.2,0.6c0.7,0.4,1.2,0.9,1.5,1.7c0.7-0.7,1.6-1.2,2.4-1.6c0.9-0.4,1.8-0.6,2.8-0.6c0.3,0,0.6,0,0.9,0.1
		c0.3,0,0.6,0.1,0.9,0.3c0.8,0.3,1.3,0.8,1.7,1.6C191.7,14.9,191.9,15.7,191.7,16.6z"/>
</g>
<g>
	<g>
		<path class="st1" d="M10.5,36.3V21.4H6.9c-0.3,0-0.6-0.1-0.9-0.2c-0.2-0.1-0.4-0.3-0.6-0.5c-0.2-0.2-0.3-0.4-0.3-0.7
			C5,19.8,5,19.6,5,19.3c0-0.2,0-0.5,0.1-0.7c0.1-0.2,0.2-0.5,0.3-0.7c0.1-0.2,0.3-0.4,0.6-0.5c0.2-0.1,0.5-0.2,0.9-0.2h12.2
			c0.3,0,0.6,0.1,0.9,0.2c0.2,0.1,0.4,0.3,0.6,0.5c0.1,0.2,0.3,0.4,0.3,0.7c0.1,0.2,0.1,0.5,0.1,0.7c0,0.2,0,0.5-0.1,0.7
			c-0.1,0.3-0.2,0.5-0.3,0.7c-0.2,0.2-0.4,0.4-0.6,0.5c-0.2,0.1-0.5,0.2-0.9,0.2h-3.6v14.9H10.5z"/>
		<path class="st1" d="M31,36.3v-8.6c0-0.4-0.1-0.7-0.2-1c-0.1-0.3-0.3-0.5-0.5-0.7c-0.2-0.2-0.4-0.3-0.6-0.4
			c-0.2-0.1-0.4-0.1-0.7-0.1c-0.2,0-0.4,0-0.7,0.1c-0.2,0.1-0.4,0.2-0.6,0.3c-0.2,0.2-0.3,0.4-0.5,0.6c-0.1,0.3-0.2,0.6-0.2,1v8.7
			h-4.8V18.7c0-0.4,0.1-0.7,0.2-1c0.1-0.3,0.3-0.5,0.5-0.7c0.2-0.2,0.5-0.3,0.8-0.4c0.3-0.1,0.6-0.2,0.9-0.2c0.3,0,0.6,0.1,0.9,0.2
			c0.3,0.1,0.5,0.3,0.8,0.4c0.2,0.2,0.4,0.4,0.5,0.7c0.1,0.3,0.2,0.6,0.2,1v4c0.4-0.4,0.9-0.6,1.4-0.8c0.5-0.2,1.1-0.3,1.7-0.3
			c0.8,0,1.5,0.1,2.2,0.3c0.7,0.2,1.3,0.6,1.8,1.1c0.5,0.5,0.9,1.2,1.2,2c0.3,0.8,0.5,1.9,0.5,3.1v8.3H31z"/>
		<path class="st1" d="M45.3,36.7c-0.9,0-1.7-0.1-2.6-0.3c-0.9-0.2-1.7-0.6-2.4-1.1c-0.7-0.5-1.3-1.2-1.7-2
			c-0.4-0.8-0.7-1.9-0.7-3.1v-2.1c0-1.3,0.2-2.3,0.6-3.1c0.4-0.8,1-1.5,1.6-2c0.7-0.5,1.4-0.9,2.2-1.1c0.8-0.2,1.6-0.3,2.3-0.3
			c0.8,0,1.6,0.1,2.4,0.3c0.8,0.2,1.5,0.6,2.1,1.1c0.6,0.6,1.1,1.3,1.5,2.3c0.4,1,0.6,2.3,0.6,3.8c0,0.2,0,0.4,0,0.7
			c0,0.3-0.1,0.5-0.1,0.7h-8.5v0c0,0.4,0.1,0.8,0.3,1c0.2,0.3,0.4,0.5,0.7,0.7c0.3,0.2,0.6,0.3,0.9,0.4c0.3,0.1,0.6,0.1,0.9,0.1
			c0.6,0,1,0,1.3-0.1c0.3,0,0.6-0.1,0.9-0.2c0.2-0.1,0.4-0.1,0.5-0.2c0.2-0.1,0.4-0.1,0.6-0.2c0.4,0,0.8,0,1.1,0.1
			c0.3,0.1,0.6,0.4,0.7,0.8c0.3,0.6,0.3,1.1,0,1.6c-0.2,0.5-0.7,0.9-1.2,1.2c-0.2,0.1-0.4,0.2-0.7,0.3c-0.3,0.1-0.6,0.2-1,0.3
			c-0.4,0.1-0.8,0.2-1.2,0.2C46.1,36.7,45.7,36.7,45.3,36.7z M44.8,25.3c-0.3,0-0.5,0-0.8,0.1c-0.2,0.1-0.5,0.2-0.7,0.4
			s-0.3,0.4-0.5,0.6c-0.1,0.3-0.2,0.6-0.2,1h4c0-0.4,0-0.7-0.1-1c-0.1-0.3-0.2-0.5-0.4-0.6c-0.2-0.2-0.4-0.3-0.6-0.4
			C45.3,25.4,45,25.3,44.8,25.3z"/>
	</g>
	<g>
		<path class="st1" d="M82.8,14.6c0,1.2-0.3,2.4-0.9,3.4c-0.6,1.1-1.6,1.9-2.8,2.6c1.7,0.7,3,1.6,3.7,2.9c0.8,1.2,1.2,2.6,1.2,4.2v0
			c0,1.7-0.3,3.1-0.9,4.3c-0.6,1.2-1.5,2.1-2.6,2.8c-1.1,0.7-2.4,1.3-3.9,1.6c-1.5,0.3-3.1,0.5-4.9,0.5h-6.9c-1.2,0-2.2-0.1-3-0.3
			c-0.8-0.2-1.4-0.6-1.9-1.1c-0.5-0.5-0.8-1.1-1-1.9c-0.2-0.8-0.3-1.7-0.3-2.9V11.4c0-1.1,0.1-2.1,0.3-2.9c0.2-0.8,0.5-1.4,1-1.9
			c0.5-0.5,1.1-0.9,1.9-1.1c0.8-0.2,1.8-0.3,3-0.3h5.8c1.8,0,3.5,0.2,5,0.6c1.5,0.4,2.8,1,3.8,1.8c1.1,0.8,1.9,1.7,2.5,2.9
			c0.6,1.1,0.9,2.5,0.9,3.9V14.6z M67.9,11.9c-0.4,0-0.7,0.1-0.9,0.2c-0.2,0.1-0.2,0.5-0.2,0.9v4.8H71c0.7,0,1.2-0.1,1.7-0.3
			c0.5-0.2,0.9-0.4,1.2-0.7c0.3-0.3,0.5-0.6,0.7-0.9c0.1-0.3,0.2-0.7,0.2-1v-0.3c0-0.7-0.3-1.4-0.9-2c-0.6-0.6-1.5-0.9-2.9-0.9H67.9
			z M66.7,24.3v4.8c0,0.5,0.1,0.8,0.2,0.9c0.2,0.1,0.5,0.2,0.9,0.2h4.3c1.3,0,2.3-0.3,2.9-0.9c0.6-0.6,0.9-1.2,0.9-2v-0.3
			c0-0.7-0.3-1.4-0.9-2c-0.6-0.6-1.5-0.9-2.9-0.9H66.7z"/>
		<path class="st1" d="M98.8,37.6c-1.4,0-2.9-0.2-4.3-0.6c-1.4-0.4-2.8-1-3.9-1.8c-1.2-0.8-2.1-2-2.8-3.4c-0.7-1.4-1.1-3.1-1.1-5.2
			v-3.5c0-2.1,0.3-3.9,1-5.2c0.7-1.4,1.6-2.5,2.7-3.4c1.1-0.8,2.3-1.4,3.6-1.8c1.3-0.4,2.6-0.5,3.9-0.5c1.4,0,2.7,0.2,4,0.5
			c1.3,0.3,2.5,1,3.5,1.9c1,0.9,1.8,2.2,2.5,3.8c0.6,1.6,0.9,3.8,0.9,6.4c0,0.3,0,0.7-0.1,1.2c0,0.5-0.1,0.9-0.1,1.2H94.4v0
			c0,0.7,0.1,1.3,0.4,1.7c0.3,0.4,0.7,0.8,1.1,1.1c0.4,0.3,0.9,0.5,1.5,0.6c0.5,0.1,1,0.2,1.5,0.2c1,0,1.7,0,2.2-0.1
			c0.5-0.1,1.1-0.2,1.6-0.4c0.3-0.1,0.6-0.2,0.9-0.3c0.3-0.1,0.6-0.2,1-0.3c0.7-0.1,1.3,0,1.9,0.2c0.6,0.2,1,0.7,1.2,1.3
			c0.4,1,0.4,1.9,0,2.7c-0.4,0.8-1.1,1.5-2,2c-0.3,0.2-0.7,0.4-1.2,0.6c-0.5,0.2-1,0.4-1.7,0.5c-0.6,0.2-1.3,0.3-2,0.4
			C100.2,37.6,99.5,37.6,98.8,37.6z M97.9,18.7c-0.4,0-0.9,0.1-1.3,0.2c-0.4,0.1-0.8,0.3-1.1,0.6c-0.3,0.3-0.6,0.6-0.8,1.1
			c-0.2,0.4-0.3,1-0.3,1.6h6.7c0-0.7,0-1.2-0.2-1.6c-0.2-0.4-0.4-0.8-0.7-1.1c-0.3-0.3-0.6-0.5-1-0.6C98.7,18.7,98.3,18.7,97.9,18.7
			z"/>
		<path class="st1" d="M115.1,19.6h-1.3c-1.2,0-2.1-0.3-2.7-1c-0.5-0.7-0.8-1.4-0.8-2.2c0-0.4,0.1-0.8,0.2-1.2
			c0.1-0.4,0.3-0.8,0.6-1.1c0.3-0.3,0.6-0.6,1.1-0.8c0.4-0.2,1-0.3,1.6-0.3h1.3V8.9c0-0.7,0.1-1.2,0.3-1.7c0.2-0.5,0.5-0.9,0.9-1.2
			c0.4-0.3,0.8-0.6,1.2-0.7C118,5.1,118.5,5,119,5c0.5,0,1,0.1,1.4,0.2c0.5,0.2,0.9,0.4,1.2,0.7c0.4,0.3,0.7,0.7,0.9,1.2
			c0.2,0.5,0.3,1.1,0.3,1.7V13h2.3c0.6,0,1.2,0.1,1.6,0.3c0.4,0.2,0.8,0.5,1.1,0.8c0.3,0.3,0.5,0.7,0.6,1.1c0.1,0.4,0.2,0.8,0.2,1.2
			c0,0.8-0.3,1.6-0.8,2.2c-0.5,0.7-1.4,1-2.7,1h-2.3v9.8c0,0.6,0.1,1,0.4,1.2c0.2,0.2,0.5,0.3,0.9,0.3c0.3,0,0.6,0,0.8-0.1
			c0.2-0.1,0.6-0.1,0.9-0.1c0.7,0,1.2,0.2,1.7,0.6c0.5,0.4,0.8,0.9,0.9,1.6c0.2,0.8,0.1,1.5-0.2,2.2c-0.3,0.6-0.7,1.1-1.3,1.5
			c-0.4,0.3-1,0.5-1.7,0.7c-0.7,0.2-1.4,0.3-2.1,0.3c-1.3,0-2.5-0.1-3.5-0.4c-1-0.3-1.9-0.7-2.6-1.4c-0.7-0.6-1.3-1.5-1.6-2.5
			c-0.4-1-0.6-2.3-0.6-3.8V19.6z"/>
		<path class="st1" d="M133.7,19.6h-1.3c-1.2,0-2.1-0.3-2.7-1c-0.5-0.7-0.8-1.4-0.8-2.2c0-0.4,0.1-0.8,0.2-1.2
			c0.1-0.4,0.3-0.8,0.6-1.1c0.3-0.3,0.6-0.6,1.1-0.8c0.4-0.2,1-0.3,1.6-0.3h1.3V8.9c0-0.7,0.1-1.2,0.3-1.7c0.2-0.5,0.5-0.9,0.9-1.2
			c0.4-0.3,0.8-0.6,1.2-0.7c0.5-0.2,0.9-0.2,1.4-0.2c0.5,0,1,0.1,1.4,0.2c0.5,0.2,0.9,0.4,1.2,0.7c0.4,0.3,0.7,0.7,0.9,1.2
			c0.2,0.5,0.3,1.1,0.3,1.7V13h2.3c0.6,0,1.2,0.1,1.6,0.3c0.4,0.2,0.8,0.5,1.1,0.8c0.3,0.3,0.5,0.7,0.6,1.1c0.1,0.4,0.2,0.8,0.2,1.2
			c0,0.8-0.3,1.6-0.8,2.2c-0.5,0.7-1.4,1-2.7,1h-2.3v9.8c0,0.6,0.1,1,0.4,1.2c0.2,0.2,0.5,0.3,0.9,0.3c0.3,0,0.6,0,0.8-0.1
			c0.2-0.1,0.6-0.1,0.9-0.1c0.7,0,1.2,0.2,1.7,0.6c0.5,0.4,0.8,0.9,0.9,1.6c0.2,0.8,0.1,1.5-0.2,2.2c-0.3,0.6-0.7,1.1-1.3,1.5
			c-0.4,0.3-1,0.5-1.7,0.7c-0.7,0.2-1.4,0.3-2.1,0.3c-1.3,0-2.5-0.1-3.5-0.4c-1-0.3-1.9-0.7-2.6-1.4c-0.7-0.6-1.3-1.5-1.6-2.5
			c-0.4-1-0.6-2.3-0.6-3.8V19.6z"/>
		<path class="st1" d="M161.3,37.6c-1.4,0-2.9-0.2-4.3-0.6c-1.4-0.4-2.8-1-3.9-1.8c-1.2-0.8-2.1-2-2.8-3.4c-0.7-1.4-1.1-3.1-1.1-5.2
			v-3.5c0-2.1,0.3-3.9,1-5.2c0.7-1.4,1.6-2.5,2.7-3.4c1.1-0.8,2.3-1.4,3.6-1.8c1.3-0.4,2.6-0.5,3.9-0.5c1.4,0,2.7,0.2,4,0.5
			c1.3,0.3,2.5,1,3.5,1.9c1,0.9,1.8,2.2,2.5,3.8c0.6,1.6,0.9,3.8,0.9,6.4c0,0.3,0,0.7-0.1,1.2c0,0.5-0.1,0.9-0.1,1.2H157v0
			c0,0.7,0.1,1.3,0.4,1.7c0.3,0.4,0.7,0.8,1.1,1.1c0.4,0.3,0.9,0.5,1.5,0.6c0.5,0.1,1,0.2,1.5,0.2c1,0,1.7,0,2.2-0.1
			c0.5-0.1,1.1-0.2,1.6-0.4c0.3-0.1,0.6-0.2,0.9-0.3c0.3-0.1,0.6-0.2,1-0.3c0.7-0.1,1.3,0,1.9,0.2c0.6,0.2,1,0.7,1.2,1.3
			c0.4,1,0.4,1.9,0,2.7c-0.4,0.8-1.1,1.5-2,2c-0.3,0.2-0.7,0.4-1.2,0.6c-0.5,0.2-1,0.4-1.7,0.5c-0.6,0.2-1.3,0.3-2,0.4
			C162.8,37.6,162.1,37.6,161.3,37.6z M160.5,18.7c-0.4,0-0.9,0.1-1.3,0.2c-0.4,0.1-0.8,0.3-1.1,0.6c-0.3,0.3-0.6,0.6-0.8,1.1
			c-0.2,0.4-0.3,1-0.3,1.6h6.7c0-0.7,0-1.2-0.2-1.6c-0.2-0.4-0.4-0.8-0.7-1.1c-0.3-0.3-0.6-0.5-1-0.6
			C161.3,18.7,160.9,18.7,160.5,18.7z"/>
		<path class="st1" d="M174.9,36.9V16.2c0-0.7,0.1-1.2,0.3-1.7c0.2-0.5,0.5-0.9,0.9-1.2c0.4-0.3,0.8-0.6,1.3-0.8
			c0.5-0.2,1-0.3,1.5-0.3c0.8,0,1.5,0.2,2.2,0.6c0.7,0.4,1.2,0.9,1.5,1.7c0.7-0.7,1.6-1.2,2.4-1.6c0.9-0.4,1.8-0.6,2.8-0.6
			c0.3,0,0.6,0,0.9,0.1c0.3,0,0.6,0.1,0.9,0.3c0.8,0.3,1.3,0.8,1.7,1.6c0.4,0.7,0.5,1.6,0.4,2.5c-0.1,0.9-0.5,1.7-1.2,2.2
			c-0.6,0.6-1.4,0.8-2.3,0.8c-0.3,0-0.6,0-0.9,0c-0.3,0-0.6,0-0.9,0c-1.1,0.1-2,0.4-2.6,1c-0.6,0.6-1,1.4-1,2.4v13.9H174.9z"/>
	</g>
</g>
</svg>
