<?xml version="1.0" encoding="utf-8"?>
<!-- Generator: Adobe Illustrator 23.0.0, SVG Export Plug-In . SVG Version: 6.00 Build 0)  -->
<svg version="1.1" id="레이어_1" xmlns="http://www.w3.org/2000/svg" xmlns:xlink="http://www.w3.org/1999/xlink" x="0px"
	 y="0px" viewBox="0 0 138.5 120" style="enable-background:new 0 0 138.5 120;" xml:space="preserve">
<style type="text/css">
	.st0{fill:#FFFFFF;}
	.st1{fill:#18617A;}
</style>
<g>
	<path class="st0" d="M125.1,46.6c-3.4,0-6.6,1.3-8.9,3.4V35.1c0-7-5.7-12.8-12.8-12.8H79.5c2.1-2.4,3.4-5.5,3.4-8.9
		C83,6,77,0,69.6,0S56.2,6,56.2,13.4c0,3.4,1.3,6.6,3.4,8.9H35.7c-7,0-12.8,5.7-12.8,12.8v15.5c-2.4-2.5-5.8-4-9.6-4
		C6,46.6,0,52.6,0,60s6,13.4,13.4,13.4c3.8,0,7.1-1.5,9.6-4v15.5c0,7,5.7,12.8,12.8,12.8h23.9c-2.1,2.4-3.4,5.5-3.4,8.9
		c0,7.4,6,13.4,13.4,13.4S83,114,83,106.6c0-3.4-1.3-6.6-3.4-8.9h23.9c7,0,12.8-5.7,12.8-12.8V70c2.4,2.1,5.5,3.4,8.9,3.4
		c7.4,0,13.4-6,13.4-13.4S132.5,46.6,125.1,46.6z"/>
	<g>
		<path class="st1" d="M61.1,73.9v-4.2c0-2.7,0.3-4.9,0.9-6.6c0.6-1.7,1.9-3.1,3.8-4.3c1.5-0.9,2.9-1.7,4.1-2.5
			c1.2-0.7,2.2-1.4,2.9-2.1c1.1-1,1.8-1.9,2.2-2.8c0.4-0.9,0.6-1.9,0.6-3.1c0-1.6-0.6-2.9-1.7-3.8c-1.1-0.9-2.4-1.4-4-1.4
			c-1.6,0-3,0.4-4.3,1.1c-1.3,0.8-2.1,1.9-2.5,3.3c-0.5,1.7-1.4,2.9-2.8,3.8c-1.3,0.9-3,1.2-4.9,1.1c-0.8,0-1.5-0.2-2.3-0.5
			c-0.7-0.3-1.4-0.7-1.9-1.3c-0.5-0.6-1-1.2-1.3-2C49.6,48,49.5,47,49.5,46c0-2.1,0.6-4.1,1.7-5.9c1.1-1.8,2.6-3.4,4.4-4.7
			c1.8-1.3,4-2.4,6.4-3.1c2.4-0.8,5-1.1,7.8-1.1c2.9,0,5.5,0.4,7.9,1.1c2.4,0.7,4.5,1.8,6.2,3.2c1.7,1.4,3.1,3.2,4.1,5.4
			c1,2.2,1.5,4.7,1.5,7.7c0,2.3-0.3,4.4-0.8,6.1c-0.6,1.7-1.4,3.3-2.7,4.8c-1.1,1.2-2.4,2.4-3.9,3.6c-1.5,1.2-3.2,2.3-4.9,3.4
			c-1,0.6-1.6,1.3-1.9,2c-0.3,0.7-0.4,1.5-0.4,2.4v3.1H61.1z M60.7,84.1c0-2.2,0.6-3.9,1.9-5.1c1.3-1.2,3.1-1.9,5.4-1.9
			s4.2,0.6,5.4,1.9c1.3,1.3,1.9,3,1.9,5.1c0,2.1-0.6,3.8-1.9,5.1c-1.3,1.3-3.1,1.9-5.4,1.9s-4.2-0.6-5.4-1.9
			C61.3,88,60.7,86.3,60.7,84.1z"/>
	</g>
</g>
</svg>
