<?xml version="1.0" encoding="utf-8"?>
<!-- Generator: Adobe Illustrator 23.0.0, SVG Export Plug-In . SVG Version: 6.00 Build 0)  -->
<svg version="1.1" id="레이어_1" xmlns="http://www.w3.org/2000/svg" xmlns:xlink="http://www.w3.org/1999/xlink" x="0px"
	 y="0px" viewBox="0 0 114.9 120" style="enable-background:new 0 0 114.9 120;" xml:space="preserve">
<style type="text/css">
	.st0{fill:#FFFFFF;}
	.st1{fill:#000000;}
</style>
<g>
	<path class="st0" d="M105.3,46.6c3.8,0,7.1,1.5,9.6,4V35.1c0-7-5.7-12.8-12.8-12.8H68.1c2.1-2.4,3.4-5.5,3.4-8.9
		C71.5,6,65.5,0,58.1,0S44.7,6,44.7,13.4c0,3.4,1.3,6.6,3.4,8.9H12.8C5.7,22.3,0,28.1,0,35.1V50c2.4-2.1,5.5-3.4,8.9-3.4
		c7.4,0,13.4,6,13.4,13.4s-6,13.4-13.4,13.4c-3.4,0-6.6-1.3-8.9-3.4v14.9c0,7,5.7,12.8,12.8,12.8h35.3c-2.1,2.4-3.4,5.5-3.4,8.9
		c0,7.4,6,13.4,13.4,13.4s13.4-6,13.4-13.4c0-3.4-1.3-6.6-3.4-8.9h34.1c7,0,12.8-5.7,12.8-12.8V69.4c-2.4,2.5-5.8,4-9.6,4
		c-7.4,0-13.4-6-13.4-13.4S97.9,46.6,105.3,46.6z"/>
</g>
<g>
	<path class="st1" d="M85.6,48.7c0,4.3-3.8,7.8-8.4,7.8H37.6c-4.6,0-8.4-3.5-8.4-7.8s3.8-7.8,8.4-7.8h39.7C81.9,40.9,85.6,44.4,85.6,48.7z"/>
	<path class="st1" d="M85.6,71.3c0,4.3-3.8,7.8-8.4,7.8H37.6c-4.6,0-8.4-3.5-8.4-7.8c0-4.3,3.8-7.8,8.4-7.8h39.7C81.9,63.5,85.6,67,85.6,71.3z"
		/>
</g>
</svg>
