<?xml version="1.0" encoding="utf-8"?>
<!-- Generator: Adobe Illustrator 23.0.0, SVG Export Plug-In . SVG Version: 6.00 Build 0)  -->
<svg version="1.1" id="레이어_1" xmlns="http://www.w3.org/2000/svg" xmlns:xlink="http://www.w3.org/1999/xlink" x="0px"
	 y="0px" viewBox="0 0 115 120.1" style="enable-background:new 0 0 115 120.1;" xml:space="preserve">
<style type="text/css">
	.st0{fill:#FFFFFF;}
	.st1{fill:#F3722C;}
</style>
<g>
	<path class="st0" d="M105.4,46.6c3.8,0,7.1,1.5,9.6,4V35.1c0-7-5.8-12.8-12.8-12.8H68.1c2.1-2.4,3.4-5.5,3.4-8.9
		C71.6,6,65.5,0,58.1,0S44.7,6,44.7,13.4c0,3.4,1.3,6.6,3.4,8.9H12.8C5.8,22.4,0,28.1,0,35.1v14.9c2.4-2.1,5.5-3.4,8.9-3.4
		c7.4,0,13.4,6,13.4,13.4c0,7.4-6,13.4-13.4,13.4c-3.4,0-6.6-1.3-8.9-3.4V85c0,7,5.8,12.8,12.8,12.8h35.4c-2.1,2.4-3.4,5.5-3.4,8.9
		c0,7.4,6,13.4,13.4,13.4s13.4-6,13.4-13.4c0-3.4-1.3-6.6-3.4-8.9h34.1c7,0,12.8-5.8,12.8-12.8V69.4c-2.4,2.5-5.8,4-9.6,4
		c-7.4,0-13.4-6-13.4-13.4C92,52.6,98,46.6,105.4,46.6z"/>
	<path class="st1" d="M66.8,60.1l7.2-7.2c2.7-2.7,2.9-7.1,0.3-9.7c-2.6-2.6-6.9-2.4-9.7,0.3l-7.2,7.2l-7.2-7.2
		c-2.7-2.7-7.1-2.9-9.7-0.3c-2.6,2.6-2.4,6.9,0.3,9.7l7.2,7.2L41,67.3c-2.7,2.7-2.9,7.1-0.3,9.7c2.6,2.6,6.9,2.4,9.7-0.3l7.2-7.2
		l7.2,7.2c2.7,2.7,7.1,2.9,9.7,0.3c2.6-2.6,2.4-6.9-0.3-9.7L66.8,60.1z"/>
</g>
</svg>
